<mxfile host="app.diagrams.net" modified="2023-11-17T09:14:48.934Z" agent="Mozilla/5.0 (Windows NT 10.0; Win64; x64) AppleWebKit/537.36 (KHTML, like Gecko) Chrome/119.0.0.0 Safari/537.36" etag="VSXzNCKwMpY3B-6dBmnj" version="22.1.2" type="github">
  <diagram id="j5msO9XKNBTfVSApXjJV" name="Page-1">
    <mxGraphModel dx="1834" dy="1146" grid="0" gridSize="10" guides="1" tooltips="1" connect="1" arrows="1" fold="1" page="0" pageScale="1" pageWidth="827" pageHeight="1169" math="0" shadow="0">
      <root>
        <mxCell id="0" />
        <mxCell id="1" parent="0" />
        <mxCell id="LKb0-64Mf8W_8RgTpQx8-3" value="" style="rounded=0;whiteSpace=wrap;html=1;dashed=1;strokeColor=#30ACFF;strokeWidth=2;" vertex="1" parent="1">
          <mxGeometry x="-88" y="193" width="818" height="812" as="geometry" />
        </mxCell>
        <mxCell id="wZkuEuTL__6hPiaOwBk9-11" value="" style="rounded=0;whiteSpace=wrap;html=1;fillColor=#f5f5f5;fontColor=#333333;strokeColor=none;" parent="1" vertex="1">
          <mxGeometry x="30" y="642" width="640" height="348" as="geometry" />
        </mxCell>
        <mxCell id="wZkuEuTL__6hPiaOwBk9-27" value="" style="edgeStyle=orthogonalEdgeStyle;rounded=0;orthogonalLoop=1;jettySize=auto;html=1;shape=flexArrow;" parent="1" edge="1">
          <mxGeometry relative="1" as="geometry">
            <mxPoint x="183" y="609" as="sourcePoint" />
            <mxPoint x="183" y="642" as="targetPoint" />
          </mxGeometry>
        </mxCell>
        <mxCell id="wZkuEuTL__6hPiaOwBk9-10" value="" style="rounded=0;whiteSpace=wrap;html=1;fillColor=#f5f5f5;fontColor=#333333;strokeColor=none;" parent="1" vertex="1">
          <mxGeometry x="30" y="349" width="640" height="260" as="geometry" />
        </mxCell>
        <mxCell id="wZkuEuTL__6hPiaOwBk9-2" value="" style="rounded=0;whiteSpace=wrap;html=1;fillColor=#f5f5f5;fontColor=#333333;strokeColor=none;" parent="1" vertex="1">
          <mxGeometry x="30" y="210" width="640" height="110" as="geometry" />
        </mxCell>
        <mxCell id="h-4lxs5_fm6_QuoArNwU-2" value="移动端" style="verticalLabelPosition=bottom;verticalAlign=top;html=1;shadow=0;dashed=0;strokeWidth=1;shape=mxgraph.android.phone2;strokeColor=#c0c0c0;" parent="1" vertex="1">
          <mxGeometry x="172" y="-55.5" width="40" height="70" as="geometry" />
        </mxCell>
        <mxCell id="h-4lxs5_fm6_QuoArNwU-4" value="电脑端" style="fontColor=#0066CC;verticalAlign=top;verticalLabelPosition=bottom;labelPosition=center;align=center;html=1;outlineConnect=0;fillColor=#CCCCCC;strokeColor=#6881B3;gradientColor=none;gradientDirection=north;strokeWidth=2;shape=mxgraph.networks.pc;" parent="1" vertex="1">
          <mxGeometry x="472" y="-59" width="100" height="70" as="geometry" />
        </mxCell>
        <mxCell id="wZkuEuTL__6hPiaOwBk9-38" style="edgeStyle=orthogonalEdgeStyle;rounded=0;orthogonalLoop=1;jettySize=auto;html=1;entryX=0.5;entryY=0;entryDx=0;entryDy=0;" parent="1" source="h-4lxs5_fm6_QuoArNwU-5" target="h-4lxs5_fm6_QuoArNwU-6" edge="1">
          <mxGeometry relative="1" as="geometry">
            <Array as="points">
              <mxPoint x="350" y="330" />
              <mxPoint x="175" y="330" />
            </Array>
          </mxGeometry>
        </mxCell>
        <mxCell id="wZkuEuTL__6hPiaOwBk9-40" style="edgeStyle=orthogonalEdgeStyle;rounded=0;orthogonalLoop=1;jettySize=auto;html=1;" parent="1" source="h-4lxs5_fm6_QuoArNwU-5" target="wZkuEuTL__6hPiaOwBk9-3" edge="1">
          <mxGeometry relative="1" as="geometry">
            <Array as="points">
              <mxPoint x="350" y="330" />
              <mxPoint x="518" y="330" />
            </Array>
          </mxGeometry>
        </mxCell>
        <mxCell id="h-4lxs5_fm6_QuoArNwU-5" value="防火墙" style="fontColor=#0066CC;verticalAlign=top;verticalLabelPosition=bottom;labelPosition=center;align=center;html=1;outlineConnect=0;fillColor=#CCCCCC;strokeColor=#6881B3;gradientColor=none;gradientDirection=north;strokeWidth=2;shape=mxgraph.networks.firewall;" parent="1" vertex="1">
          <mxGeometry x="315" y="220" width="70" height="70" as="geometry" />
        </mxCell>
        <mxCell id="wZkuEuTL__6hPiaOwBk9-15" style="edgeStyle=orthogonalEdgeStyle;rounded=0;orthogonalLoop=1;jettySize=auto;html=1;entryX=0.5;entryY=0;entryDx=0;entryDy=0;entryPerimeter=0;" parent="1" source="h-4lxs5_fm6_QuoArNwU-6" target="h-4lxs5_fm6_QuoArNwU-7" edge="1">
          <mxGeometry relative="1" as="geometry">
            <Array as="points">
              <mxPoint x="175" y="470" />
              <mxPoint x="95" y="470" />
            </Array>
          </mxGeometry>
        </mxCell>
        <mxCell id="wZkuEuTL__6hPiaOwBk9-17" style="edgeStyle=orthogonalEdgeStyle;rounded=0;orthogonalLoop=1;jettySize=auto;html=1;" parent="1" source="h-4lxs5_fm6_QuoArNwU-6" target="wZkuEuTL__6hPiaOwBk9-4" edge="1">
          <mxGeometry relative="1" as="geometry">
            <Array as="points">
              <mxPoint x="175" y="470" />
              <mxPoint x="253" y="470" />
            </Array>
          </mxGeometry>
        </mxCell>
        <mxCell id="h-4lxs5_fm6_QuoArNwU-6" value="nginx 负载&lt;br&gt;172.28.48.105" style="shape=image;html=1;verticalAlign=top;verticalLabelPosition=bottom;labelBackgroundColor=#ffffff;imageAspect=0;aspect=fixed;image=https://cdn4.iconfinder.com/data/icons/logos-brands-5/24/nginx-128.png" parent="1" vertex="1">
          <mxGeometry x="140" y="359" width="70" height="70" as="geometry" />
        </mxCell>
        <mxCell id="h-4lxs5_fm6_QuoArNwU-7" value="&lt;br&gt;&lt;br&gt;&lt;br&gt;&lt;br&gt;&lt;br&gt;&lt;br&gt;APP应用服务&lt;br&gt;172.28.48.105" style="html=1;dashed=0;whitespace=wrap;fillColor=#2875E2;strokeColor=#ffffff;points=[[0.005,0.63,0],[0.1,0.2,0],[0.9,0.2,0],[0.5,0,0],[0.995,0.63,0],[0.72,0.99,0],[0.5,1,0],[0.28,0.99,0]];shape=mxgraph.kubernetes.icon;prIcon=api" parent="1" vertex="1">
          <mxGeometry x="70" y="499" width="50" height="48" as="geometry" />
        </mxCell>
        <mxCell id="h-4lxs5_fm6_QuoArNwU-8" value="&lt;br&gt;&lt;br&gt;&lt;br&gt;&lt;br&gt;&lt;br&gt;&lt;br&gt;APP应用服务&lt;br&gt;172.28.48.205" style="html=1;dashed=0;whitespace=wrap;fillColor=#2875E2;strokeColor=#ffffff;points=[[0.005,0.63,0],[0.1,0.2,0],[0.9,0.2,0],[0.5,0,0],[0.995,0.63,0],[0.72,0.99,0],[0.5,1,0],[0.28,0.99,0]];shape=mxgraph.kubernetes.icon;prIcon=api" parent="1" vertex="1">
          <mxGeometry x="402" y="499" width="50" height="48" as="geometry" />
        </mxCell>
        <mxCell id="wZkuEuTL__6hPiaOwBk9-35" value="" style="rounded=0;whiteSpace=wrap;html=1;dashed=1;" parent="1" vertex="1">
          <mxGeometry x="100" y="650" width="170" height="330" as="geometry" />
        </mxCell>
        <mxCell id="wZkuEuTL__6hPiaOwBk9-36" value="" style="rounded=0;whiteSpace=wrap;html=1;dashed=1;" parent="1" vertex="1">
          <mxGeometry x="433.5" y="650" width="170" height="330" as="geometry" />
        </mxCell>
        <mxCell id="h-4lxs5_fm6_QuoArNwU-18" value="实时同步数据" style="edgeStyle=none;rounded=0;orthogonalLoop=1;jettySize=auto;html=1;entryX=0;entryY=0.5;entryDx=0;entryDy=0;entryPerimeter=0;dashed=1;" parent="1" source="h-4lxs5_fm6_QuoArNwU-15" target="h-4lxs5_fm6_QuoArNwU-16" edge="1">
          <mxGeometry relative="1" as="geometry" />
        </mxCell>
        <mxCell id="h-4lxs5_fm6_QuoArNwU-15" value="&lt;br&gt;&lt;br&gt;&lt;br&gt;&lt;br&gt;&lt;br&gt;&lt;br&gt;&lt;br&gt;&lt;br&gt;数据库主&lt;br&gt;172.28.48.105&lt;br&gt;&lt;span style=&quot;text-align: start;&quot;&gt;&lt;font face=&quot;monospace&quot; color=&quot;rgba(0, 0, 0, 0)&quot;&gt;&lt;span style=&quot;font-size: 0px;&quot;&gt;%3CmxGraphModel%3E%3Croot%3E6gt%3B%26lt%3Bbr%26gt%3B%26lt%3Bbr%26gt%3B%26lt%3Bbr%26gt%3B%26lt%3Bbr%26gt%3B%26lt%3Bbr%26gt%3BAPP%E5%BA%94%E7%94%A8%E6%9C%8D%E5%8A%A1%26lt%3Bbr%26gt%3B172.28.48.105%22%20style%3D%22html%3D1%3Bdashed%3D0%3Bwhitespace%3Dwrap%3BfillColor%3D%232875E2%3BstrokeColor%3D%23ffffff%3Bpoints%3D%5B%5B0.005%2C0.63%2C0%5D%2C%5B0.1%2C0.2%2C0%5D%2C%5B0.9%2C0.2%2C0%5D%2C%5B0.5%2C0%2C0%5D%2C%5B0.995%2C0.63%2C0%5D%2C%5B0.72%2C0.99%2C0%5D%2C%5B0.5%2C1%2C0%5D%2C%5B0.28%2C0.99%2C0%5D%5D%3Bshape%3Dmxgraph.kubernetes.icon%3BprIcon%3Dapi%22%20vertex%3D%221%22%20parent%3D%221%22%3E%3CmxGeometry%20x%3D%2270%22%20y%3D%22490%22%20width%3D%2250%22%20height%3D%2248%22%20as%3D%22geometry%22%2F%3E%3C%2FmxCell%3E%3C%2Froot%3E%3C%2FmxGraphModel%3E1721720&lt;/span&gt;&lt;/font&gt;&lt;font face=&quot;monospace&quot; color=&quot;rgba(0, 0, 0, 0)&quot;&gt;&lt;span style=&quot;font-size: 0px;&quot;&gt;72.28.48.105&lt;/span&gt;&lt;/font&gt;&lt;br&gt;&lt;/span&gt;" style="shape=cylinder3;whiteSpace=wrap;html=1;boundedLbl=1;backgroundOutline=1;size=15;" parent="1" vertex="1">
          <mxGeometry x="166" y="652" width="40" height="58" as="geometry" />
        </mxCell>
        <mxCell id="h-4lxs5_fm6_QuoArNwU-16" value="&lt;br&gt;&lt;br&gt;&lt;br&gt;&lt;br&gt;&lt;br&gt;&lt;br&gt;&lt;br&gt;数据库备&lt;br&gt;172.28.48.205" style="shape=cylinder3;whiteSpace=wrap;html=1;boundedLbl=1;backgroundOutline=1;size=15;" parent="1" vertex="1">
          <mxGeometry x="501" y="652" width="35" height="58" as="geometry" />
        </mxCell>
        <mxCell id="wZkuEuTL__6hPiaOwBk9-18" style="edgeStyle=orthogonalEdgeStyle;rounded=0;orthogonalLoop=1;jettySize=auto;html=1;entryX=0.5;entryY=0;entryDx=0;entryDy=0;entryPerimeter=0;" parent="1" source="wZkuEuTL__6hPiaOwBk9-3" target="h-4lxs5_fm6_QuoArNwU-8" edge="1">
          <mxGeometry relative="1" as="geometry">
            <Array as="points">
              <mxPoint x="518" y="470" />
              <mxPoint x="427" y="470" />
            </Array>
          </mxGeometry>
        </mxCell>
        <mxCell id="wZkuEuTL__6hPiaOwBk9-20" style="edgeStyle=orthogonalEdgeStyle;rounded=0;orthogonalLoop=1;jettySize=auto;html=1;entryX=0.5;entryY=0;entryDx=0;entryDy=0;entryPerimeter=0;" parent="1" source="wZkuEuTL__6hPiaOwBk9-3" target="wZkuEuTL__6hPiaOwBk9-5" edge="1">
          <mxGeometry relative="1" as="geometry">
            <Array as="points">
              <mxPoint x="518" y="470" />
              <mxPoint x="606" y="470" />
            </Array>
          </mxGeometry>
        </mxCell>
        <mxCell id="wZkuEuTL__6hPiaOwBk9-3" value="nginx 负载&lt;br&gt;172.28.48.205" style="shape=image;html=1;verticalAlign=top;verticalLabelPosition=bottom;labelBackgroundColor=#ffffff;imageAspect=0;aspect=fixed;image=https://cdn4.iconfinder.com/data/icons/logos-brands-5/24/nginx-128.png" parent="1" vertex="1">
          <mxGeometry x="483" y="359" width="70" height="70" as="geometry" />
        </mxCell>
        <mxCell id="wZkuEuTL__6hPiaOwBk9-4" value="&lt;br&gt;&lt;br&gt;&lt;br&gt;&lt;br&gt;&lt;br&gt;&lt;br&gt;管理端服务&lt;br&gt;172.28.48.105" style="html=1;dashed=0;whitespace=wrap;fillColor=#2875E2;strokeColor=#ffffff;points=[[0.005,0.63,0],[0.1,0.2,0],[0.9,0.2,0],[0.5,0,0],[0.995,0.63,0],[0.72,0.99,0],[0.5,1,0],[0.28,0.99,0]];shape=mxgraph.kubernetes.icon;prIcon=api" parent="1" vertex="1">
          <mxGeometry x="228" y="499" width="50" height="48" as="geometry" />
        </mxCell>
        <mxCell id="wZkuEuTL__6hPiaOwBk9-5" value="&lt;br&gt;&lt;br&gt;&lt;br&gt;&lt;br&gt;&lt;br&gt;&lt;br&gt;管理端服务&lt;br&gt;172.28.48.205" style="html=1;dashed=0;whitespace=wrap;fillColor=#2875E2;strokeColor=#ffffff;points=[[0.005,0.63,0],[0.1,0.2,0],[0.9,0.2,0],[0.5,0,0],[0.995,0.63,0],[0.72,0.99,0],[0.5,1,0],[0.28,0.99,0]];shape=mxgraph.kubernetes.icon;prIcon=api" parent="1" vertex="1">
          <mxGeometry x="581" y="499" width="50" height="48" as="geometry" />
        </mxCell>
        <mxCell id="wZkuEuTL__6hPiaOwBk9-9" value="实时同步数据" style="edgeStyle=orthogonalEdgeStyle;rounded=0;orthogonalLoop=1;jettySize=auto;html=1;entryX=0;entryY=0.5;entryDx=0;entryDy=0;entryPerimeter=0;dashed=1;" parent="1" source="wZkuEuTL__6hPiaOwBk9-6" target="wZkuEuTL__6hPiaOwBk9-8" edge="1">
          <mxGeometry relative="1" as="geometry" />
        </mxCell>
        <mxCell id="wZkuEuTL__6hPiaOwBk9-6" value="Mongodb主&lt;br&gt;172.28.48.105" style="sketch=0;points=[[0,0,0],[0.25,0,0],[0.5,0,0],[0.75,0,0],[1,0,0],[0,1,0],[0.25,1,0],[0.5,1,0],[0.75,1,0],[1,1,0],[0,0.25,0],[0,0.5,0],[0,0.75,0],[1,0.25,0],[1,0.5,0],[1,0.75,0]];outlineConnect=0;fontColor=#232F3E;gradientColor=#4D72F3;gradientDirection=north;fillColor=#3334B9;strokeColor=#ffffff;dashed=0;verticalLabelPosition=bottom;verticalAlign=top;align=center;html=1;fontSize=12;fontStyle=0;aspect=fixed;shape=mxgraph.aws4.resourceIcon;resIcon=mxgraph.aws4.documentdb_with_mongodb_compatibility;" parent="1" vertex="1">
          <mxGeometry x="166" y="783" width="48" height="48" as="geometry" />
        </mxCell>
        <mxCell id="wZkuEuTL__6hPiaOwBk9-8" value="Mongodb备&lt;br&gt;172.28.48.205" style="sketch=0;points=[[0,0,0],[0.25,0,0],[0.5,0,0],[0.75,0,0],[1,0,0],[0,1,0],[0.25,1,0],[0.5,1,0],[0.75,1,0],[1,1,0],[0,0.25,0],[0,0.5,0],[0,0.75,0],[1,0.25,0],[1,0.5,0],[1,0.75,0]];outlineConnect=0;fontColor=#232F3E;gradientColor=#4D72F3;gradientDirection=north;fillColor=#3334B9;strokeColor=#ffffff;dashed=0;verticalLabelPosition=bottom;verticalAlign=top;align=center;html=1;fontSize=12;fontStyle=0;aspect=fixed;shape=mxgraph.aws4.resourceIcon;resIcon=mxgraph.aws4.documentdb_with_mongodb_compatibility;" parent="1" vertex="1">
          <mxGeometry x="496" y="783" width="48" height="48" as="geometry" />
        </mxCell>
        <mxCell id="wZkuEuTL__6hPiaOwBk9-21" value="Redis&amp;nbsp;&lt;br&gt;172.28.48.105" style="outlineConnect=0;dashed=0;verticalLabelPosition=bottom;verticalAlign=top;align=center;html=1;shape=mxgraph.aws3.redis;fillColor=#2E73B8;gradientColor=none;" parent="1" vertex="1">
          <mxGeometry x="160" y="890" width="56" height="50" as="geometry" />
        </mxCell>
        <mxCell id="wZkuEuTL__6hPiaOwBk9-23" value="Redis&amp;nbsp;&lt;br&gt;172.28.48.205" style="outlineConnect=0;dashed=0;verticalLabelPosition=bottom;verticalAlign=top;align=center;html=1;shape=mxgraph.aws3.redis;fillColor=#2E73B8;gradientColor=none;" parent="1" vertex="1">
          <mxGeometry x="496" y="890" width="56" height="50" as="geometry" />
        </mxCell>
        <mxCell id="wZkuEuTL__6hPiaOwBk9-34" value="" style="edgeStyle=orthogonalEdgeStyle;rounded=0;orthogonalLoop=1;jettySize=auto;html=1;shape=flexArrow;" parent="1" edge="1">
          <mxGeometry relative="1" as="geometry">
            <mxPoint x="518" y="609" as="sourcePoint" />
            <mxPoint x="518" y="642" as="targetPoint" />
          </mxGeometry>
        </mxCell>
        <mxCell id="LKb0-64Mf8W_8RgTpQx8-8" style="edgeStyle=orthogonalEdgeStyle;rounded=0;orthogonalLoop=1;jettySize=auto;html=1;fontColor=#ADCEFF;strokeColor=#ADCEFF;" edge="1" parent="1" source="LKb0-64Mf8W_8RgTpQx8-1" target="LKb0-64Mf8W_8RgTpQx8-2">
          <mxGeometry relative="1" as="geometry" />
        </mxCell>
        <mxCell id="LKb0-64Mf8W_8RgTpQx8-1" value="pad端" style="html=1;verticalLabelPosition=bottom;labelBackgroundColor=#ffffff;verticalAlign=top;shadow=0;dashed=0;strokeWidth=1;shape=mxgraph.ios7.misc.ipad10inch;strokeColor=#c0c0c0;" vertex="1" parent="1">
          <mxGeometry x="325" y="-59" width="50" height="77" as="geometry" />
        </mxCell>
        <mxCell id="LKb0-64Mf8W_8RgTpQx8-2" value="&lt;br&gt;&lt;br&gt;&lt;br&gt;&lt;br&gt;&lt;br&gt;互联网" style="ellipse;shape=cloud;whiteSpace=wrap;html=1;" vertex="1" parent="1">
          <mxGeometry x="302.5" y="82" width="95" height="53" as="geometry" />
        </mxCell>
        <mxCell id="LKb0-64Mf8W_8RgTpQx8-5" value="专有网络" style="outlineConnect=0;dashed=0;verticalLabelPosition=bottom;verticalAlign=top;align=center;html=1;shape=mxgraph.aws3.internet_3;fillColor=#D2D3D3;gradientColor=none;fontColor=#1476CC;" vertex="1" parent="1">
          <mxGeometry x="-80" y="200" width="79.5" height="54" as="geometry" />
        </mxCell>
        <mxCell id="LKb0-64Mf8W_8RgTpQx8-7" style="edgeStyle=orthogonalEdgeStyle;rounded=0;orthogonalLoop=1;jettySize=auto;html=1;entryX=0.07;entryY=0.4;entryDx=0;entryDy=0;entryPerimeter=0;fontColor=#ADCEFF;strokeColor=#ADCEFF;" edge="1" parent="1" source="h-4lxs5_fm6_QuoArNwU-2" target="LKb0-64Mf8W_8RgTpQx8-2">
          <mxGeometry relative="1" as="geometry">
            <Array as="points">
              <mxPoint x="192" y="103" />
            </Array>
          </mxGeometry>
        </mxCell>
        <mxCell id="LKb0-64Mf8W_8RgTpQx8-10" style="edgeStyle=orthogonalEdgeStyle;rounded=0;orthogonalLoop=1;jettySize=auto;html=1;entryX=0.96;entryY=0.7;entryDx=0;entryDy=0;entryPerimeter=0;fontColor=#ADCEFF;strokeColor=#ADCEFF;" edge="1" parent="1">
          <mxGeometry relative="1" as="geometry">
            <mxPoint x="517" y="32" as="sourcePoint" />
            <mxPoint x="388.99999999999983" y="102.09999999999991" as="targetPoint" />
            <Array as="points">
              <mxPoint x="517.3" y="102" />
            </Array>
          </mxGeometry>
        </mxCell>
        <mxCell id="LKb0-64Mf8W_8RgTpQx8-11" style="edgeStyle=orthogonalEdgeStyle;rounded=0;orthogonalLoop=1;jettySize=auto;html=1;entryX=0.5;entryY=0;entryDx=0;entryDy=0;entryPerimeter=0;" edge="1" parent="1" source="LKb0-64Mf8W_8RgTpQx8-2" target="h-4lxs5_fm6_QuoArNwU-5">
          <mxGeometry relative="1" as="geometry" />
        </mxCell>
      </root>
    </mxGraphModel>
  </diagram>
</mxfile>
